<?xml version="1.0" encoding="UTF-8"?>
<svg width="88px" height="88px" viewBox="0 0 88 88" version="1.1" xmlns="http://www.w3.org/2000/svg" xmlns:xlink="http://www.w3.org/1999/xlink">
    <!-- Generator: Sketch 47.1 (45422) - http://www.bohemiancoding.com/sketch -->
    <title>avatar-boy</title>
    <desc>Created with Sketch.</desc>
    <defs>
        <circle id="path-1" cx="40" cy="40" r="40"></circle>
    </defs>
    <g id="Page-1" stroke="none" stroke-width="1" fill="none" fill-rule="evenodd">
        <g id="Desktop-HD" transform="translate(-764.000000, -131.000000)">
            <g id="avatar-boy" transform="translate(768.000000, 135.000000)">
                <mask id="mask-2" fill="white">
                    <use xlink:href="#path-1"></use>
                </mask>
                <g id="Mask">
                    <use fill="#E5E5E5" fill-rule="evenodd" xlink:href="#path-1"></use>
                    <circle stroke="#282929" stroke-width="4" cx="40" cy="40" r="42"></circle>
                </g>
                <g id="noun_1370071_cc" mask="url(#mask-2)" fill-rule="nonzero">
                    <g transform="translate(0.000000, 5.600000)" id="Shape">
                        <path d="M37.4093536,17.9668946 C37.1046661,17.6469727 37.1175567,17.1403321 37.4378692,16.8360352 C37.757791,16.5325196 38.2644317,16.543457 38.5687286,16.8645508 C44.8101348,23.4270508 54.0921691,22.2704102 54.1851378,22.2583008 C54.6218566,22.2000977 55.0257629,22.507129 55.0843566,22.9450195 C55.1429502,23.3829101 54.8351378,23.7856446 54.3976378,23.8442382 C54.2882628,23.8586914 53.5171691,23.9555664 52.3171691,23.9555664 C49.0007599,23.9555664 42.4023224,23.2172851 37.4093536,17.9668946 Z M64.850763,74.7489258 C64.8640442,75.1958008 64.694513,75.6348633 64.3859192,75.9520508 C64.0835754,76.2637695 63.6804505,76.4356446 63.2515442,76.4356446 L16.7484177,76.4356446 C16.3195114,76.4356446 15.916777,76.2645508 15.6144333,75.9528321 C15.3058395,75.6356446 15.1363082,75.1965821 15.1491989,74.7481446 L15.373027,66.9778321 C15.5245895,61.7036134 19.3460739,57.2895508 24.4593552,56.4817383 C24.7192185,56.4415039 24.9788865,56.489209 25.2294235,56.581543 C25.3050094,56.609375 25.3835251,56.6225586 25.4562302,56.6622071 C25.7640411,56.8297853 26.1334747,56.989795 26.5525666,57.1420899 L32.0804474,55.4036134 L32.2385529,49.8021485 C32.0834747,49.7046875 31.935379,49.5998047 31.7849396,49.4972657 C28.2492462,47.0879395 25.9848419,43.3033692 24.541777,39.2966798 C24.3710739,39.3223634 24.200322,39.3364258 24.0300583,39.3364258 C21.9370896,39.3364258 19.9273239,37.4825196 19.3120896,35.9020508 L19.311699,35.9012695 C18.9527146,34.9786133 18.9960739,33.9762695 19.4343552,33.0786133 C19.4972458,32.949707 19.5877243,32.8364746 19.6651169,32.7154785 C17.1527634,23.486914 18.3998337,14.9938476 23.0109177,9.98173824 C26.2285919,6.48496088 30.701297,5.04506832 35.9908966,5.77480464 C35.6879182,4.73735344 35.506717,3.05600584 36.3460724,0.87626952 C36.5050568,0.46416016 36.9695099,0.26025392 37.3800568,0.41728512 C37.7921662,0.57587888 37.9980255,1.03876952 37.8390412,1.45126952 C37.4293244,2.51562496 37.3158478,3.41274416 37.3366486,4.12519528 C38.6345978,2.10385736 41.1020783,1.5327148 42.5156037,1.54228512 C42.9570099,1.54853512 43.310135,1.9118164 43.303885,2.35361328 C43.297635,2.79462888 42.9515412,3.14541016 42.4945099,3.14228512 C42.380008,3.14555664 39.7006134,3.15644528 38.5769806,5.18242184 C44.6259064,3.11621168 50.55784,4.36367264 55.1140442,8.76220776 C61.258966,14.6962402 63.3479797,24.6070808 60.0962219,32.351075 C60.2796692,32.5767586 60.4388977,32.8194343 60.5656067,33.0790046 C61.003888,33.9766609 61.0468567,34.9793953 60.6874818,35.9020515 C60.0718567,37.4825202 58.0617005,39.3364266 55.9687318,39.3364266 C55.833722,39.3364266 55.6984681,39.3238289 55.5632142,39.3078133 C54.1130677,43.3863778 51.8312318,47.1720711 48.2713654,49.5586434 C48.1050569,49.670118 47.9356233,49.7780282 47.7636994,49.8833016 L47.91951,55.4036141 L53.4473939,57.1421394 C53.8667787,56.9897957 54.2364564,56.8298347 54.544513,56.6622078 C54.616974,56.6225594 54.6951478,56.6097175 54.7704896,56.5819831 C55.0217103,56.4896003 55.2818178,56.4424812 55.5390443,56.4809578 C60.6531068,57.2895515 64.4749818,61.703614 64.6273256,66.9770515 C64.6273256,66.9778328 64.6273256,66.9778328 64.6273256,66.9778328 L64.850763,74.7489258 Z" fill="#FFFFFF"></path>
                        <path d="M37.4093536,17.9668946 C37.1046661,17.6469727 37.1175567,17.1403321 37.4378692,16.8360352 C37.757791,16.5325196 38.2644317,16.543457 38.5687286,16.8645508 C44.8101348,23.4270508 54.0921691,22.2704102 54.1851378,22.2583008 C54.6218566,22.2000977 55.0257629,22.507129 55.0843566,22.9450195 C55.1429502,23.3829101 54.8351378,23.7856446 54.3976378,23.8442382 C54.2882628,23.8586914 53.5171691,23.9555664 52.3171691,23.9555664 C49.0007599,23.9555664 42.4023224,23.2172851 37.4093536,17.9668946 Z M64.850763,74.7489258 C64.8640442,75.1958008 64.694513,75.6348633 64.3859192,75.9520508 C64.0835754,76.2637695 63.6804505,76.4356446 63.2515442,76.4356446 L16.7484177,76.4356446 C16.3195114,76.4356446 15.916777,76.2645508 15.6144333,75.9528321 C15.3058395,75.6356446 15.1363082,75.1965821 15.1491989,74.7481446 L15.373027,66.9778321 C15.5245895,61.7036134 19.3460739,57.2895508 24.4593552,56.4817383 C24.7192185,56.4415039 24.9788865,56.489209 25.2294235,56.581543 C25.3050094,56.609375 25.3835251,56.6225586 25.4562302,56.6622071 C25.7640411,56.8297853 26.1334747,56.989795 26.5525666,57.1420899 L32.0804474,55.4036134 L32.2385529,49.8021485 C32.0834747,49.7046875 31.935379,49.5998047 31.7849396,49.4972657 C28.2492462,47.0879395 25.9848419,43.3033692 24.541777,39.2966798 C24.3710739,39.3223634 24.200322,39.3364258 24.0300583,39.3364258 C21.9370896,39.3364258 19.9273239,37.4825196 19.3120896,35.9020508 L19.311699,35.9012695 C18.9527146,34.9786133 18.9960739,33.9762695 19.4343552,33.0786133 C19.4972458,32.949707 19.5877243,32.8364746 19.6651169,32.7154785 C17.1527634,23.486914 18.3998337,14.9938476 23.0109177,9.98173824 C26.2285919,6.48496088 30.701297,5.04506832 35.9908966,5.77480464 C35.6879182,4.73735344 35.506717,3.05600584 36.3460724,0.87626952 C36.5050568,0.46416016 36.9695099,0.26025392 37.3800568,0.41728512 C37.7921662,0.57587888 37.9980255,1.03876952 37.8390412,1.45126952 C37.4293244,2.51562496 37.3158478,3.41274416 37.3366486,4.12519528 C38.6345978,2.10385736 41.1020783,1.5327148 42.5156037,1.54228512 C42.9570099,1.54853512 43.310135,1.9118164 43.303885,2.35361328 C43.297635,2.79462888 42.9515412,3.14541016 42.4945099,3.14228512 C42.380008,3.14555664 39.7006134,3.15644528 38.5769806,5.18242184 C44.6259064,3.11621168 50.55784,4.36367264 55.1140442,8.76220776 C61.258966,14.6962402 63.3479797,24.6070808 60.0962219,32.351075 C60.2796692,32.5767586 60.4388977,32.8194343 60.5656067,33.0790046 C61.003888,33.9766609 61.0468567,34.9793953 60.6874818,35.9020515 C60.0718567,37.4825202 58.0617005,39.3364266 55.9687318,39.3364266 C55.833722,39.3364266 55.6984681,39.3238289 55.5632142,39.3078133 C54.1130677,43.3863778 51.8312318,47.1720711 48.2713654,49.5586434 C48.1050569,49.670118 47.9356233,49.7780282 47.7636994,49.8833016 L47.91951,55.4036141 L53.4473939,57.1421394 C53.8667787,56.9897957 54.2364564,56.8298347 54.544513,56.6622078 C54.616974,56.6225594 54.6951478,56.6097175 54.7704896,56.5819831 C55.0217103,56.4896003 55.2818178,56.4424812 55.5390443,56.4809578 C60.6531068,57.2895515 64.4749818,61.703614 64.6273256,66.9770515 C64.6273256,66.9778328 64.6273256,66.9778328 64.6273256,66.9778328 L64.850763,74.7489258 Z M16.7484177,74.7942383 L63.2515427,74.8356446 L63.027324,67.0231446 C62.9251267,63.4730469 60.8782029,60.387207 57.8859666,58.8988282 C57.4033006,58.6587402 56.8967576,58.4609375 56.3688279,58.3091798 C56.0167283,58.207959 55.6589646,58.1197754 55.289824,58.0614258 C55.1012498,58.1652833 54.8897263,58.2655762 54.6663377,58.3639161 C54.3032029,58.5237306 53.8990037,58.6765626 53.4511033,58.8207032 C50.375026,59.8107422 45.4079362,60.4153321 39.9999772,60.4153321 C34.5917741,60.4153321 29.6249284,59.8109375 26.5386002,58.823877 C26.0893326,58.6802247 25.6833756,58.5277833 25.3182893,58.3685548 C25.0934358,58.2704591 24.8803986,58.1704591 24.6902131,58.0668946 C24.3281526,58.1239259 23.976883,58.2100587 23.6310822,58.3087892 C23.1034455,58.4594728 22.597049,58.6565919 22.1143342,58.8962404 C19.1260041,60.379883 17.0745881,63.4688966 16.9722443,67.0231447 L16.7484177,74.7942383 Z M29.4394318,57.9115722 C32.2844513,58.4780762 36.046756,58.815332 39.9999786,58.815332 C43.9525666,58.815332 47.7148712,58.4780273 50.5602814,57.9115234 L46.8960724,56.759082 C46.5702911,56.6567382 46.3460724,56.359082 46.3359162,56.018457 L46.1860626,50.7162597 C44.6663361,51.4064452 42.9605743,51.877539 41.0312286,52.0543945 L39.0991974,52.0575195 C37.1144318,51.8760742 35.3668243,51.3796875 33.8150177,50.6534668 L33.6636505,56.018457 C33.6542754,56.3590821 33.4292754,56.6567383 33.1038849,56.7590821 L29.4394318,57.9115722 Z M26.0085724,38.6617676 C27.2984162,42.2828126 29.2822052,45.6893066 32.3198517,47.9169922 C32.5040802,48.0520997 32.6865021,48.1892578 32.8785919,48.3154298 C32.9428986,48.3576661 33.0121369,48.394043 33.0773224,48.435254 C33.3335236,48.5972169 33.5943146,48.7538087 33.8645294,48.8992189 C35.3955842,49.7228029 37.1516877,50.2755372 39.1718537,50.4606446 L40.9585724,50.4575196 C42.9229767,50.277002 44.6354278,49.7487794 46.1365509,48.9641602 C46.4059357,48.8233887 46.6688751,48.6749513 46.9244903,48.5176758 C47.0059356,48.467627 47.085672,48.4155274 47.1657501,48.3638673 C47.3459747,48.247461 47.524002,48.1286134 47.6973418,48.0043458 C50.7637481,45.8061524 52.7683898,42.4021974 54.0715637,38.7208497 C54.1633606,38.4614258 54.252716,38.2012208 54.3377258,37.9394044 C54.430841,37.6524903 54.5205871,37.3646974 54.605841,37.0757326 C55.0579406,35.5436037 55.4022277,33.9895998 55.6621398,32.4761232 C55.7109679,32.1917482 55.7574034,31.9085939 55.8005186,31.6275881 C55.8425597,31.3534182 55.8820616,31.0809572 55.9189757,30.8107424 C56.0830382,29.6090334 56.1979796,28.4504397 56.276544,27.3704104 C47.1343536,27.752832 38.2406036,26.6887695 33.7749786,17.8829102 C29.1554474,22.1602539 28.4206818,26.4946289 28.4136505,26.540332 C28.3503692,26.9383789 28.0148223,27.2211914 27.596463,27.2172851 C27.1613067,27.202832 25.8128692,26.8602538 24.7531051,23.4348633 C24.4624801,23.9274414 24.1034958,24.5469726 23.6710738,25.3098633 C23.7248336,26.8038086 23.8584274,28.7189942 24.152275,30.8211914 C24.1899215,31.0906738 24.2307418,31.3631836 24.2739547,31.6384278 C24.319023,31.9258301 24.3674606,32.2155274 24.4189742,32.5081543 C24.6758102,33.9667969 25.013652,35.4810547 25.460527,36.9874512 C25.5482222,37.2830078 25.6414336,37.5776856 25.7375762,37.8719727 C25.8239533,38.1363282 25.9150666,38.3992187 26.0085724,38.6617676 Z M24.0187302,37.7316406 C23.4696579,35.9392578 23.0692673,34.1355957 22.7790818,32.4194824 C22.685527,32.4386718 22.5917282,32.45 22.4988083,32.477832 C21.7609177,32.6993164 21.167949,33.1739258 20.8722458,33.7801758 C20.6288865,34.2793945 20.6046677,34.812207 20.8027146,35.3208008 C21.221904,36.397461 22.713359,37.7137207 24.0187302,37.7316406 Z M59.1968567,35.3208008 C59.3952942,34.812207 59.3710754,34.2793946 59.1273254,33.7805664 C58.832013,33.1739258 58.2390442,32.6993164 57.500763,32.477832 C57.4310364,32.4568847 57.360431,32.4472656 57.2902161,32.4312011 C57.0038391,34.1651366 56.6105774,35.9577148 56.0781067,37.7257324 C57.3591614,37.6469238 58.7877258,36.3707519 59.1968567,35.3208008 Z M20.9913864,31.4292481 C21.3162887,31.2317871 21.6603317,31.0587402 22.0390426,30.9450196 C22.20457,30.8954102 22.372197,30.8743165 22.5392379,30.8434571 C22.2545211,28.7607911 22.1220504,26.8671388 22.0671676,25.372754 C22.0566207,25.0786134 22.1296676,24.7836915 22.279277,24.5204102 C23.7339645,21.9551758 24.3644332,20.9954102 24.3906051,20.9559571 C24.5679489,20.6860353 24.8890426,20.5500978 25.2077926,20.6106446 C25.5249802,20.6711915 25.7749786,20.916504 25.8409942,21.2325197 C26.277713,23.313379 26.7792755,24.4200197 27.1601349,25.0028322 C27.7613067,23.1161134 29.3824005,19.463379 33.5269318,15.9680666 C33.7195099,15.8055666 33.9769318,15.7426759 34.2226349,15.8000978 C34.4679474,15.8567385 34.6726349,16.0254885 34.7741974,16.2559572 C38.8081818,25.3836916 47.8882598,26.2016603 57.0913879,25.7305666 C57.332013,25.7172853 57.5406066,25.8047853 57.6999817,25.9653322 C57.8601379,26.1266603 57.944513,26.3485353 57.9312317,26.5754884 C57.8557434,27.8889162 57.7274231,29.3385743 57.5250305,30.8567384 C57.6702454,30.8856446 57.8161926,30.9019044 57.9601379,30.9450197 C58.2507141,31.0322267 58.5278137,31.1462404 58.7877746,31.2836427 C61.4827454,24.2937502 59.4819641,15.204883 54.0023254,9.91337904 C51.3179504,7.32080088 45.5656036,3.55556656 37.2031036,7.447754 C37.0519318,7.51845712 36.8835723,7.53994152 36.718338,7.50869152 C31.5531036,6.54306648 27.2187286,7.77158216 24.188652,11.0649415 C20.0933395,15.5158691 18.9272262,23.0773438 20.9913864,31.4292481 Z M33.0289337,32.1030274 C33.0289337,31.0381348 32.1657013,30.1749023 31.1008575,30.1749023 C30.0360138,30.1749023 29.1727814,31.0381347 29.1727814,32.1030274 C29.1727814,33.1678711 30.0360138,34.0311035 31.1008575,34.0311035 C32.1657013,34.0311035 33.0289337,33.1678711 33.0289337,32.1030274 Z M48.8986114,30.1749023 C47.8337677,30.1749023 46.9705353,31.0381347 46.9705353,32.1030274 C46.9705353,33.1678711 47.8337677,34.0311035 48.8986114,34.0311035 C49.9634552,34.0311035 50.8266876,33.1678711 50.8266876,32.1030274 C50.8266876,31.0381348 49.9634552,30.1749023 48.8986114,30.1749023 Z M38.7663849,39.3317383 C38.7753693,39.3317383 38.7843536,39.3317383 38.793338,39.330957 L41.2601349,39.2473633 C41.7015411,39.2325195 42.0476349,38.8629882 42.0320099,38.4208008 C42.0171662,37.9793946 41.6382599,37.6223633 41.2054474,37.6489258 L39.6484162,37.7012695 L39.9257599,34.7700195 C39.9679474,34.3293945 39.6452912,33.9395508 39.2054474,33.8977539 C38.7581818,33.8614258 38.3745881,34.1793946 38.3331818,34.618457 L37.9699006,38.455957 C37.9484162,38.6856446 38.0261506,38.912207 38.183963,39.0801758 C38.3351349,39.2411133 38.5460724,39.3317383 38.7663849,39.3317383 Z M34.8351349,44.1551758 C35.7390411,45.102832 37.7179474,45.6911133 39.9999786,45.6911133 C42.2820099,45.6911133 44.2609162,45.102832 45.1640411,44.1551758 C45.4687286,43.8348633 45.4570098,43.3286133 45.1374786,43.0239258 C44.8171662,42.7192382 44.3116974,42.7317382 44.0062286,43.0504882 C43.5281036,43.5520507 42.0710724,44.0911133 39.9999786,44.0911133 C37.9288849,44.0911133 36.4710724,43.5520508 35.9929474,43.0504882 C35.687088,42.730957 35.1816192,42.7192382 34.8616974,43.0239258 C34.5421662,43.3286133 34.5300568,43.8356446 34.8351349,44.1551758 Z M34.2757599,30.2586914 C34.3702912,30.2950196 34.4671662,30.312207 34.5628693,30.312207 C34.8843537,30.3118164 35.1874786,30.1168946 35.3097443,29.7989258 C35.4679474,29.3864258 35.2620881,28.9235351 34.8499787,28.7649414 C31.3949006,27.4379882 27.7366974,28.6333007 27.5827912,28.6844726 C27.1640412,28.8243164 26.9386506,29.2766602 27.077713,29.6954102 C27.2175568,30.1141602 27.671463,30.3415039 28.0886506,30.2020508 C28.1218536,30.1918946 31.3695099,29.1411133 34.2757599,30.2586914 Z M45.4366974,30.312207 C45.5320098,30.312207 45.6296661,30.2950195 45.7234161,30.2586914 C48.6304474,29.1415039 51.8788879,30.1915039 51.9109191,30.2020508 C52.3288878,30.3415039 52.7820129,30.1141602 52.9218566,29.6954102 C53.0609191,29.2766602 52.8351379,28.8243164 52.4171691,28.6844726 C52.2624816,28.6336914 48.6031036,27.4379882 45.1499786,28.7649414 C44.7374786,28.9235351 44.5312286,29.3864258 44.6898223,29.7989258 C44.8124786,30.1168946 45.1156036,30.312207 45.4366974,30.312207 Z" fill="#000000"></path>
                    </g>
                </g>
            </g>
        </g>
    </g>
</svg>