<?xml version="1.0" encoding="UTF-8"?>
<svg width="88px" height="88px" viewBox="0 0 88 88" version="1.1" xmlns="http://www.w3.org/2000/svg" xmlns:xlink="http://www.w3.org/1999/xlink">
    <!-- Generator: Sketch 47.1 (45422) - http://www.bohemiancoding.com/sketch -->
    <title>avatar-mom</title>
    <desc>Created with Sketch.</desc>
    <defs>
        <circle id="path-1" cx="40" cy="40" r="40"></circle>
    </defs>
    <g id="Page-1" stroke="none" stroke-width="1" fill="none" fill-rule="evenodd">
        <g id="Desktop-HD" transform="translate(-1204.000000, -360.000000)">
            <g id="avatar-mom" transform="translate(1208.000000, 364.000000)">
                <mask id="mask-2" fill="white">
                    <use xlink:href="#path-1"></use>
                </mask>
                <g id="Mask">
                    <use fill="#E5E5E5" fill-rule="evenodd" xlink:href="#path-1"></use>
                    <circle stroke="#282929" stroke-width="4" cx="40" cy="40" r="42"></circle>
                </g>
                <g id="noun_1361587_cc" mask="url(#mask-2)">
                    <g transform="translate(2.000000, 8.000000)">
                        <path d="M63.8357437,67.6351074 C63.6161712,60.1529126 58.090511,54.0330805 50.6962594,53.0833743 L50.6332065,53.0751808 C50.3706097,53.0386822 50.107271,53.1451983 49.9403663,53.3545061 C49.8413824,53.4785266 49.6970562,53.6031987 49.5278334,53.7274054 C49.4384466,53.7930003 49.3392773,53.8582228 49.2309747,53.923259 L44.9183876,53.0260195 L44.9210302,47.4322531 C45.0017472,47.4857439 45.0933594,47.5255943 45.1943367,47.5452867 C45.3740376,47.5803886 45.5456713,47.610742 45.7195768,47.6424454 C47.7662464,48.015528 49.4453545,48.1590547 51.5033366,48.1590547 C52.9720985,48.1590547 54.6359534,48.0875474 56.7693671,47.9780519 C57.5007809,47.9408085 58.1060888,47.543797 58.389456,46.9166185 C58.7084295,46.210484 58.5749057,45.3494171 58.0400687,44.6708428 C57.4785269,43.9572596 57.9221227,42.6880053 58.3909396,41.3435193 C58.5392994,40.9181999 58.6891428,40.4876665 58.8145068,40.0593676 C60.2958793,35.0110276 61.0651247,29.8431362 61.1007311,24.6994532 C61.1741692,14.0549215 58.5170454,6.72319138 53.202798,2.90797965 C46.6260087,-1.81485407 38.335664,0.525147443 36.8928651,0.985848114 C35.5557726,0.722537457 28.5476273,-0.373535251 22.7189422,4.18579925 C17.7181048,8.09784382 15.0891694,14.9927098 14.9044615,24.6797134 C14.8132202,29.4755434 15.5609535,34.506379 17.189944,40.0593668 C17.3156789,40.4876656 17.4655223,40.9181992 17.6138821,41.3435186 C18.0830699,42.6880045 18.5259239,43.9580038 17.964753,44.670842 C17.4306578,45.3494164 17.2967631,46.2097385 17.6153657,46.9166178 C17.8987329,47.5437963 18.5040409,47.9408078 19.2350837,47.9780511 C24.3572516,48.2404773 26.7724098,48.2825157 30.2775951,47.6448655 C30.4534478,47.6128827 30.6293933,47.5807603 30.8112267,47.545286 C30.8794722,47.5319714 30.9365907,47.4982662 30.9960273,47.4687508 C31.0231957,47.4915624 31.0500396,47.5150723 31.0773006,47.5376511 L31.0793869,53.0260187 L26.7685152,53.9231651 C26.6601199,53.8580358 26.5608579,53.7928133 26.4714247,53.7271253 C26.3023873,53.6030118 26.1582002,53.4784327 26.0592627,53.3545053 C25.8938416,53.1474321 25.5648538,53.0483647 25.3026278,53.0833735 C17.9083762,54.0330797 12.382716,60.1529117 12.1638853,67.6351066 L12.0003187,73.2149096 C11.9943843,73.4212379 12.0715314,73.6208625 12.2146986,73.7683462 C12.3574949,73.9165748 12.5540716,74 12.75955,74 L63.2400792,74 C63.4455575,74 63.6421342,73.9165748 63.7853014,73.7683462 C63.9284686,73.6208624 64.0056157,73.420493 63.9996813,73.2149096 L63.8357437,67.6351074 Z" id="Path" fill="#FFFFFF" fill-rule="evenodd"></path>
                        <path d="M63.8357437,67.6351074 C63.6161712,60.1529126 58.090511,54.0330805 50.6962594,53.0833743 L50.6332065,53.0751808 C50.3706097,53.0386822 50.107271,53.1451983 49.9403663,53.3545061 C49.8413824,53.4785266 49.6970562,53.6031987 49.5278334,53.7274054 C49.4384466,53.7930003 49.3392773,53.8582228 49.2309747,53.923259 L44.9183876,53.0260195 L44.9210302,47.4322531 C45.0017472,47.4857439 45.0933594,47.5255943 45.1943367,47.5452867 C45.3740376,47.5803886 45.5456713,47.610742 45.7195768,47.6424454 C47.7662464,48.015528 49.4453545,48.1590547 51.5033366,48.1590547 C52.9720985,48.1590547 54.6359534,48.0875474 56.7693671,47.9780519 C57.5007809,47.9408085 58.1060888,47.543797 58.389456,46.9166185 C58.7084295,46.210484 58.5749057,45.3494171 58.0400687,44.6708428 C57.4785269,43.9572596 57.9221227,42.6880053 58.3909396,41.3435193 C58.5392994,40.9181999 58.6891428,40.4876665 58.8145068,40.0593676 C60.2958793,35.0110276 61.0651247,29.8431362 61.1007311,24.6994532 C61.1741692,14.0549215 58.5170454,6.72319138 53.202798,2.90797965 C46.6260087,-1.81485407 38.335664,0.525147443 36.8928651,0.985848114 C35.5557726,0.722537457 28.5476273,-0.373535251 22.7189422,4.18579925 C17.7181048,8.09784382 15.0891694,14.9927098 14.9044615,24.6797134 C14.8132202,29.4755434 15.5609535,34.506379 17.189944,40.0593668 C17.3156789,40.4876656 17.4655223,40.9181992 17.6138821,41.3435186 C18.0830699,42.6880045 18.5259239,43.9580038 17.964753,44.670842 C17.4306578,45.3494164 17.2967631,46.2097385 17.6153657,46.9166178 C17.8987329,47.5437963 18.5040409,47.9408078 19.2350837,47.9780511 C24.3572516,48.2404773 26.7724098,48.2825157 30.2775951,47.6448655 C30.4534478,47.6128827 30.6293933,47.5807603 30.8112267,47.545286 C30.8794722,47.5319714 30.9365907,47.4982662 30.9960273,47.4687508 C31.0231957,47.4915624 31.0500396,47.5150723 31.0773006,47.5376511 L31.0793869,53.0260187 L26.7685152,53.9231651 C26.6601199,53.8580358 26.5608579,53.7928133 26.4714247,53.7271253 C26.3023873,53.6030118 26.1582002,53.4784327 26.0592627,53.3545053 C25.8938416,53.1474321 25.5648538,53.0483647 25.3026278,53.0833735 C17.9083762,54.0330797 12.382716,60.1529117 12.1638853,67.6351066 L12.0003187,73.2149096 C11.9943843,73.4212379 12.0715314,73.6208625 12.2146986,73.7683462 C12.3574949,73.9165748 12.5540716,74 12.75955,74 L63.2400792,74 C63.4455575,74 63.6421342,73.9165748 63.7853014,73.7683462 C63.9284686,73.6208624 64.0056157,73.420493 63.9996813,73.2149096 L63.8357437,67.6351074 Z M19.3126016,46.4540557 C19.0692916,46.4421378 19.0184783,46.328918 18.9991915,46.2864605 C18.9320587,46.1382319 18.9546835,45.873059 19.1568238,45.6168245 C20.2361412,44.2455233 19.631946,42.5137061 19.0477793,40.8392438 C18.9075793,40.4377602 18.7658957,40.0318073 18.6475788,39.6284616 C17.0627254,34.2266819 16.3350206,29.3466819 16.4236656,24.7087639 C16.5987302,15.5137446 19.0262671,9.01738346 23.6391437,5.39956158 C29.392907,0.886781345 36.6925793,2.50053692 36.7663883,2.51804137 C36.9043629,2.54858097 37.0519809,2.54187713 37.1877301,2.49457805 C37.2741496,2.4651558 45.8782753,-0.475209004 52.3193154,4.14892894 C57.208512,7.65874499 59.6512559,14.5696257 59.5815268,24.6890249 C59.5466623,29.6900659 58.798929,34.7164323 57.3576136,39.6284616 C57.2389258,40.0318074 57.0972422,40.4377603 56.9570422,40.8392438 C56.3725046,42.5137061 55.7686803,44.2455233 56.8487396,45.6168245 C57.0505089,45.873059 57.0727629,46.1382319 57.006001,46.2872054 C56.9867142,46.328918 56.9355301,46.4421378 56.6922201,46.4540557 C51.6812293,46.7112678 49.4343667,46.7555409 46.1711005,46.1761736 C48.7274323,43.5672283 50.8059065,39.9607657 52.2343794,36.1462522 C52.3322969,36.1798644 52.4236308,36.2248823 52.5262772,36.2497423 C52.8044518,36.3171528 53.087819,36.3495546 53.3697026,36.3495546 C55.0335576,36.3495546 56.6855438,35.2266667 57.3657734,33.5220372 C57.3665153,33.5220372 57.3665153,33.5220372 57.3665153,33.5216648 C57.8998687,32.1835102 57.8687131,30.4621212 57.2893682,29.3362538 C56.9236613,28.6252777 56.3650867,28.1608528 55.6737301,27.9932576 C55.2014824,27.8792928 54.7117097,27.9144413 54.2275468,28.0482381 C54.3095156,27.3307444 54.360607,26.628148 54.3832782,25.9434751 C54.3917162,25.689289 54.3993197,25.4355685 54.3993197,25.186969 C54.3993197,24.9284068 54.3831391,24.6726379 54.3746548,24.4155189 C54.1185951,24.4033217 53.8618864,24.3917297 53.612781,24.3730149 C53.3538004,24.3535552 53.1033969,24.326321 52.8518808,24.3000644 C42.65961,23.2360196 38.5278827,16.7320687 37.3814325,14.4462097 C37.1664499,14.0176316 37.0524446,13.7322541 37.0267599,13.6649833 C36.9106684,13.3595876 36.6158033,13.157356 36.288299,13.174488 C35.9630202,13.1871508 35.6815075,13.4053969 35.5887827,13.7186137 C35.514881,13.9680047 35.4287395,14.2080383 35.3401873,14.4462097 C33.2965776,19.9424945 27.4709526,22.4882192 23.178394,23.6405308 C22.9144991,23.7113863 22.6551476,23.7783778 22.4041414,23.8390845 C22.1396901,23.9030035 21.8847895,23.9608238 21.6374458,24.0143146 C21.6178345,24.4039269 21.5999387,24.7939582 21.5999387,25.186969 C21.5999387,25.3227677 21.6060121,25.4627562 21.6084694,25.6002773 C21.6220536,26.3607871 21.671105,27.1450396 21.7578027,27.9484724 C21.3974275,27.9258005 21.0352442,27.9370666 20.6789953,28.0230523 C19.7691789,28.2435331 19.0373943,28.8141017 18.6182779,29.6297316 C18.1583625,30.52469 18.1312869,31.6311908 18.544098,32.6661843 C19.185754,34.2743534 21.2698381,36.3502993 23.2211402,36.3502993 C23.4029272,36.3502993 23.582999,36.3250669 23.7612161,36.2868925 C25.1576526,40.0643953 27.175902,43.6276091 29.6508213,46.2069923 C26.4853799,46.7522355 24.2262776,46.7063796 19.3126016,46.4540557 Z M52.7369482,34.7159203 C53.2727589,33.0826585 53.6869145,31.4326837 53.9678245,29.8228851 C54.3679323,29.5961661 54.7602049,29.4502186 55.0862255,29.4502186 C55.1678234,29.4502186 55.2449705,29.4587846 55.3176667,29.476289 C55.5743291,29.5384854 55.7783239,29.7217228 55.9392943,30.0360569 C56.3183535,30.7731034 56.3257715,32.0274604 55.9563556,32.9544481 C55.4511905,34.2177436 54.0484487,35.0482709 52.8823409,34.766711 C52.8307858,34.7542344 52.785907,34.7322143 52.7369482,34.7159203 Z M23.2492357,34.8033956 C22.2071937,34.8220174 20.49489,33.4540215 19.9542576,32.0985952 C19.7053841,31.4755135 19.7105767,30.8304581 19.9679809,30.3291623 C20.1849571,29.9075672 20.5540021,29.6226554 21.0358004,29.5060836 C21.1889819,29.4688402 21.3466142,29.4509634 21.5061009,29.4509634 C21.6594215,29.4509634 21.8138548,29.4720525 21.9678244,29.5036628 C22.24586,31.2425097 22.6783751,33.0335437 23.2492357,34.8033956 Z M31.0765125,45.4513708 C28.5889362,43.0075999 26.4794919,39.417152 25.0582978,35.5002658 C24.7984364,34.7840756 24.5601335,34.058109 24.3483035,33.325299 C24.0863558,32.4190279 23.8654388,31.5043305 23.6835126,30.5898659 C23.5362655,29.8494209 23.4153059,29.1099071 23.3248528,28.3754211 C23.1949453,27.3210611 23.1238717,26.2780137 23.1206727,25.2614091 C27.5515304,24.1577947 33.8169958,21.6108116 36.4259026,15.8217473 C38.1580031,18.7730058 42.8771888,24.821751 52.8665312,25.8315587 C52.8389456,26.8292157 52.7486779,27.848148 52.5997618,28.8766239 C52.4659134,29.8010511 52.2849608,30.7314373 52.0613548,31.6595888 C51.9324673,32.1947762 51.793009,32.7291256 51.636304,33.2603093 C51.4316139,33.9541068 51.2030007,34.6423645 50.9538954,35.3217769 C49.5345558,39.1925278 47.4211243,42.7582555 44.9220502,45.2333574 C44.7750349,45.378979 44.6257478,45.517664 44.4760899,45.6555576 C44.3714499,45.7519714 44.2680153,45.8518302 44.1621699,45.9443335 C43.9123691,46.1626262 43.6584885,46.3667199 43.4022896,46.5622011 C41.6451071,47.9029599 39.7449892,48.6938696 37.7911835,48.6938696 C35.9874994,48.6938696 34.2316613,47.9776328 32.5962729,46.7584738 C32.3398423,46.5673221 32.086518,46.3641595 31.836439,46.1487531 C31.702127,46.0330659 31.5684178,45.915982 31.436053,45.7936375 C31.3154181,45.6820936 31.1954785,45.5682685 31.0765125,45.4513708 Z M31.9936541,54.3935964 C32.3463795,54.3198545 32.598962,54.0077549 32.598962,53.6464942 L32.5970149,48.6363751 C34.2081094,49.6375237 35.9487406,50.2193584 37.7911836,50.2193584 C39.7893581,50.2193584 41.6706529,49.5688097 43.4014552,48.4593294 L43.3991835,53.6464942 C43.3991835,54.0077549 43.6521369,54.3198545 44.0044914,54.3935964 L46.607742,54.9354875 C44.496814,55.4962797 41.5413017,55.8930148 37.9996291,55.8930148 C34.4575856,55.8930148 31.5021196,55.4962797 29.3913771,54.935441 L31.9936541,54.3935964 Z M13.5417769,72.474512 L13.6823478,67.6797994 C13.8739174,61.1369291 18.5804924,55.7589386 25.0195388,54.6748305 C25.0752665,54.6654265 25.128676,54.6503895 25.1846818,54.6416373 C25.5349037,54.9684014 25.9995479,55.262112 26.5428693,55.5284952 C29.1838125,56.8233544 33.8394352,57.4185036 37.9996291,57.4185036 C42.1593593,57.4185036 46.8145648,56.8231682 49.4561571,55.5284022 C50.000452,55.2616465 50.4657918,54.9674238 50.8164309,54.6401476 C50.8715558,54.6485273 50.9241771,54.6632384 50.9790702,54.6722234 C57.3855239,55.7226263 62.1245526,61.114909 62.3165395,67.6797994 L62.4574813,72.474512 L13.5417769,72.474512 Z M32.7484809,29.0606063 C32.7484809,29.9705086 32.0139145,30.7081137 31.1077608,30.7081137 C30.2016071,30.7081137 29.4669943,29.9705086 29.4669943,29.0606063 C29.4669943,28.1506574 30.2016071,27.4130523 31.1077608,27.4130523 C32.0139145,27.4130523 32.7484809,28.1506574 32.7484809,29.0606063 Z M46.5323103,29.0606063 C46.5323103,29.9705086 45.7976975,30.7081137 44.8915438,30.7081137 C43.9853901,30.7081137 43.2508237,29.9705086 43.2508237,29.0606063 C43.2508237,28.1506574 43.9853901,27.4130523 44.8915438,27.4130523 C45.7976975,27.4130523 46.5323103,28.1506574 46.5323103,29.0606063 Z M39.4865651,35.7089684 C39.9030851,35.7607367 40.199063,36.141364 40.1478788,36.5592348 C40.1004037,36.945821 39.7728995,37.2288708 39.394953,37.2288708 C39.3637974,37.2288708 39.3326418,37.2270086 39.3007445,37.2232843 L37.3234795,36.9785952 C36.8561462,36.9204956 36.4314663,36.6664957 36.1584843,36.2813992 C35.8855023,35.8963027 35.7849886,35.4102766 35.8832769,34.9484586 L36.8075584,30.5935903 C36.8950907,30.1820509 37.2982584,29.9179954 37.7088441,30.0066346 C38.1190589,30.094529 38.3809139,30.499737 38.2933816,30.9116487 L37.3691002,35.266517 C37.3564896,35.3249892 37.3768891,35.3693087 37.395805,35.3964965 C37.4150917,35.4233117 37.4503272,35.4572031 37.5096711,35.4642794 L39.4865651,35.7089684 Z M37.9996291,41.6556188 C39.468391,41.6556188 40.4879936,41.0217364 40.8462824,40.394558 C41.0550988,40.0295729 41.5198359,39.9029453 41.8829464,40.1122531 C42.2471697,40.321561 42.3732755,40.787848 42.1640882,41.1528331 C41.460492,42.3848441 39.825938,43.1811076 37.9996291,43.1811076 C36.1733201,43.1811076 34.5387663,42.3848441 33.834799,41.1528331 C33.6263535,40.787848 33.7520884,40.3215609 34.1159408,40.1122531 C34.4797932,39.9029454 34.9441593,40.0295729 35.1529757,40.394558 C35.5112646,41.0217364 36.5308673,41.6556188 37.9996291,41.6556188 Z M33.7658118,26.2331355 C33.6163394,26.6264255 33.1771944,26.823443 32.7851536,26.6733522 C29.9900553,25.6018601 27.8355003,27.6554601 27.81473,27.6763164 C27.667112,27.8204482 27.4760988,27.8919555 27.2854565,27.8919555 C27.0873962,27.8919555 26.8893359,27.8144893 26.7406052,27.6606741 C26.4483364,27.3582578 26.4553835,26.8755836 26.7561829,26.5821058 C26.8722744,26.4685135 29.6358463,23.8327996 33.3274087,25.2484204 C33.7190784,25.3985114 33.9156552,25.839473 33.7658118,26.2331355 Z M42.2330755,26.2331355 C42.0839739,25.8394729 42.2798088,25.3985113 42.6722205,25.2484205 C46.3648955,23.8324273 49.1273547,26.4688861 49.2430753,26.582106 C49.5442457,26.8752113 49.5516637,27.358258 49.2593949,27.6606742 C49.1102933,27.8144894 48.912233,27.8919556 48.7141727,27.8919556 C48.5242722,27.8919556 48.3343717,27.8208208 48.1867537,27.6781787 C48.0918035,27.5873049 45.9858364,25.6122884 43.2137338,26.6733523 C42.8235475,26.8226982 42.3829189,26.6271704 42.2330755,26.2331355 Z" id="Shape" fill="#000000" fill-rule="nonzero"></path>
                    </g>
                </g>
            </g>
        </g>
    </g>
</svg>